<?xml version="1.0" encoding="UTF-8"?><svg id="b" xmlns="http://www.w3.org/2000/svg" viewBox="0 0 437.65 43.64"><defs><style>.d{fill:#f15a24;}.e{fill:#fff;}</style></defs><g id="c"><polygon class="e" points="5.28 24.12 24.97 24.12 24.97 19.43 5.28 19.43 5.28 4.69 26.33 4.69 26.33 0 0 0 0 43.64 26.68 43.64 26.68 38.95 5.28 38.95 5.28 24.12"/><polygon class="e" points="56.48 0 45.23 18.15 44.89 18.15 33.64 0 27.42 0 41.48 21.82 27.42 43.64 33.64 43.64 44.89 25.82 45.23 25.82 56.48 43.64 62.7 43.64 48.98 21.82 62.7 0 56.48 0"/><path class="e" d="m87.95,1.84C85.77.61,82.97,0,79.55,0h-14.74v43.64h5.28v-15.94h9.55c3.39,0,6.18-.62,8.35-1.86,2.17-1.24,3.78-2.92,4.83-5.02,1.04-2.1,1.57-4.44,1.57-7.01s-.53-4.9-1.58-6.99c-1.05-2.09-2.67-3.75-4.85-4.98Zm.26,16.66c-.65,1.38-1.68,2.48-3.1,3.29s-3.3,1.21-5.65,1.21h-9.38V4.69h9.29c2.37,0,4.28.39,5.71,1.18,1.43.79,2.47,1.87,3.12,3.25.65,1.38.97,2.94.97,4.69s-.32,3.31-.97,4.7Z"/><polygon class="e" points="103.38 24.12 123.07 24.12 123.07 19.43 103.38 19.43 103.38 4.69 124.43 4.69 124.43 0 98.1 0 98.1 43.64 124.78 43.64 124.78 38.95 103.38 38.95 103.38 24.12"/><path class="e" d="m152.34,24.9c2.17-1.13,3.79-2.69,4.84-4.68,1.05-1.99,1.58-4.27,1.58-6.84s-.53-4.86-1.58-6.88c-1.05-2.02-2.67-3.6-4.86-4.76C150.13.58,147.33,0,143.92,0h-14.74v43.64h5.28v-17.05h9.55c.38,0,.73-.03,1.1-.05l9.22,17.09h6.14l-9.86-18c.62-.21,1.2-.46,1.74-.74Zm-17.88-20.21h9.29c2.36,0,4.25.36,5.69,1.08,1.43.72,2.48,1.73,3.13,3.04.65,1.31.98,2.83.98,4.58s-.32,3.25-.97,4.51c-.65,1.26-1.68,2.23-3.11,2.91-1.43.68-3.31,1.02-5.64,1.02h-9.38V4.69Z"/><polygon class="e" points="160.34 0 160.34 4.69 174.07 4.69 174.07 43.64 179.35 43.64 179.35 4.69 193.07 4.69 193.07 0 160.34 0"/><polygon class="d" points="211.81 9.55 230.64 9.55 232.26 0 201.58 0 194.34 43.64 206.18 43.64 209 26.59 225.96 26.59 227.58 17.05 210.62 17.05 211.81 9.55"/><polygon class="d" points="236.61 0 229.36 43.64 241.21 43.64 248.46 0 236.61 0"/><polygon class="d" points="279.99 0 276.24 22.84 275.9 22.84 264.14 0 254.08 0 246.84 43.64 258.68 43.64 262.52 20.71 262.77 20.71 274.71 43.64 284.59 43.64 291.84 0 279.99 0"/><path class="d" d="m325.07,2.71c-3.01-1.8-6.76-2.71-11.25-2.71h-16.36l-7.24,43.64h17.05c4.43,0,8.39-.84,11.88-2.51,3.49-1.68,6.36-4.1,8.61-7.27,2.25-3.17,3.75-6.98,4.48-11.44.77-4.63.52-8.62-.75-11.97-1.26-3.35-3.4-5.93-6.41-7.73Zm-4.52,18.52c-.51,3.12-1.34,5.59-2.48,7.38-1.14,1.8-2.56,3.08-4.26,3.83-1.7.76-3.63,1.14-5.78,1.14h-4.3l3.92-23.52h4.39c2.27,0,4.13.32,5.56.95,1.43.63,2.41,1.75,2.92,3.37.51,1.61.53,3.9.04,6.85Z"/><polygon class="d" points="371.27 9.55 372.89 0 341.44 0 334.19 43.64 365.56 43.64 367.18 34.09 347.66 34.09 348.85 26.59 366.83 26.59 368.45 17.05 350.47 17.05 351.66 9.55 371.27 9.55"/><path class="d" d="m407.95,22.72c1.74-2.14,2.87-4.77,3.38-7.89.51-3.1.28-5.75-.7-7.97-.98-2.22-2.59-3.91-4.82-5.09s-4.96-1.77-8.2-1.77h-18.83l-7.24,43.64h11.85l2.41-14.4h4.08l5.27,14.4h12.87l-6.17-16.3c2.44-1.09,4.49-2.62,6.12-4.61Zm-18.87-13.26h4.18c1.36,0,2.51.19,3.43.56s1.58.96,1.98,1.75c.4.79.5,1.81.3,3.06-.2,1.25-.62,2.25-1.28,3.01-.65.76-1.51,1.31-2.56,1.66-1.05.35-2.27.52-3.67.52h-4.15l1.77-10.57Z"/><path class="d" d="m421.03,22.72c1.74-2.14,2.86-4.77,3.38-7.89.51-3.1.27-5.76-.71-7.97-.98-2.22-2.58-3.92-4.81-5.09-2.08-1.1-4.6-1.69-7.55-1.75,1.7,1.39,3.02,3.15,3.94,5.22,1.3,2.93,1.63,6.37.99,10.24-.62,3.8-2.04,7.09-4.22,9.77-1.22,1.49-2.64,2.79-4.26,3.89l5.49,14.49h7.8l-6.17-16.3c2.44-1.09,4.49-2.61,6.12-4.61Z"/><path class="d" d="m434.01,22.72c1.74-2.14,2.86-4.77,3.38-7.89.51-3.1.27-5.76-.71-7.97-.98-2.22-2.58-3.92-4.81-5.09-2.08-1.1-5.12-1.29-8.07-1.35,1.7,1.39,3.54,2.75,4.46,4.82,1.3,2.93,1.63,6.37.99,10.24-.62,3.8-2.04,7.09-4.22,9.77-1.22,1.49-2.64,2.79-4.26,3.89l5.49,14.49h7.8l-6.17-16.3c2.44-1.09,4.49-2.61,6.12-4.61Z"/></g></svg>